<svg id="Layer_1" data-name="Layer 1" xmlns="http://www.w3.org/2000/svg" viewBox="0 0 940.01 379"><defs><style>.cls-1{fill:none;stroke:#000;stroke-width:5px;}.cls-1,.cls-2{stroke-miterlimit:10;}.cls-2{fill:#754c24;stroke:#f9f9f9;}</style></defs><title>Chocolate Logo</title><path class="cls-1" d="M948,95.94v374H13V203.31a25.85,25.85,0,0,0,2.8.15A26.18,26.18,0,0,0,39.92,167.1a.45.45,0,0,1,.61-.61c2.72,1.33,8.39,3.31,12.67,3.31a26.18,26.18,0,0,0,26.18-26.18c0-4.17-2.77-10.17-4.51-13.69a.33.33,0,0,1,.18-.47c9.71-3.83,18.35-11.24,18.35-22.3a26,26,0,0,0-2.52-11.22Z" transform="translate(-10.49 -93.44)"/><line class="cls-1" x1="241.86" y1="3.44" x2="239.99" y2="377.44"/><line class="cls-1" x1="327.88" y1="3.44" x2="326.01" y2="377.44"/><line class="cls-1" x1="1.56" y1="188.57" x2="240.93" y2="188.57"/><line class="cls-1" x1="122.18" y1="375.57" x2="122.18" y2="1.56"/><line class="cls-1" x1="3.44" y1="190.44" x2="242.8" y2="190.44"/><line class="cls-1" x1="242.8" y1="190.44" x2="3.44" y2="190.44"/><path class="cls-2" d="M392.8,327.37a11.14,11.14,0,0,1-5.47-1.38,14,14,0,0,1-4.3-3.72,24.49,24.49,0,0,1-2.87-5.67,41,41,0,0,1-1.9-7.18,107.56,107.56,0,0,1-1.7-16.44c-.08-1.63-.11-4.42-.11-8.39V277.9c.07-1.9.11-3.89.11-5.94a51.88,51.88,0,0,1,.74-9.87,16.92,16.92,0,0,1-.32-3.29,12.64,12.64,0,0,1,4.78-10.29,18.41,18.41,0,0,1,12.1-3.93,9.28,9.28,0,0,1,5.09,1.49,4.32,4.32,0,0,1,2.34,3.71,2.05,2.05,0,0,1-.85,1.7,3.39,3.39,0,0,1-2.13.64,8.71,8.71,0,0,1-2.27-.33,2.27,2.27,0,0,1-1.55-.95h-1.38v-.22a11.9,11.9,0,0,0-6.58,1.71,8.91,8.91,0,0,0-3,4.56,13.48,13.48,0,0,0-.63,3,28.63,28.63,0,0,0-.22,3.28,33.86,33.86,0,0,0-.11,3.4l.21,3.72.12,3.6a18.88,18.88,0,0,1-.43,3.72,22.7,22.7,0,0,0-.53,3.71v2.55q0,4.14.32,11.35a64.13,64.13,0,0,0,1.38,12.11,23.92,23.92,0,0,0,3.61,9.55,7.81,7.81,0,0,0,6.89,4,8.24,8.24,0,0,0,4.47-1.92c1.9-1.26,3.25-1.9,4-1.9a4.52,4.52,0,0,1,3.08,1.59,7,7,0,0,1-3,6,14.91,14.91,0,0,1-6.58,2.44A33.74,33.74,0,0,1,392.8,327.37Zm33.64.31a8.31,8.31,0,0,1-5.1-1.75,13,13,0,0,1-3.81-4.72,42,42,0,0,1-3.82-14.11,105.78,105.78,0,0,1-1-13.91,17.82,17.82,0,0,1,.11-2.13v-1.9c0-.36,0-.54-.11-.54v-1.91l.11-7.43q.11-3.39.85-10.82a36.6,36.6,0,0,1,2.44-9.87,8,8,0,0,1,1.91-3.24,3.71,3.71,0,0,1,2.65-1.12,18.42,18.42,0,0,1,7.64,1.54,16.07,16.07,0,0,1,5.73,4.31,23.94,23.94,0,0,1,3.61,6.53,38.73,38.73,0,0,1,2.13,8.22,67.49,67.49,0,0,1,.63,9.44v.85c0,2.19,0,4.18.11,5.94l.1,6.06Q440.66,327.68,426.44,327.68Zm-.42-4.45a5,5,0,0,0,3.5-1.54,10.12,10.12,0,0,0,2.45-4.2,41.24,41.24,0,0,0,2.43-11.68c.36-3.6.54-6.72.54-9.34q0-4.77-.75-12.51-.63-8.19-.63-12.21v-1.91a11.51,11.51,0,0,0-2.71-7,7.72,7.72,0,0,0-6.11-3c-2.4,0-4,1.37-4.78,4.13a28.54,28.54,0,0,0-1,8.49c0,1.34,0,2.48.11,3.4v2.86l-.23,4.89c-.14,1.48-.21,3.11-.21,4.87,0,3.83.11,7.61.33,11.36a92.85,92.85,0,0,0,2.12,15.5Q422.73,323.23,426,323.23Zm38.63,4.45a8.31,8.31,0,0,1-5.1-1.75,13,13,0,0,1-3.81-4.72,42,42,0,0,1-3.82-14.11,105.78,105.78,0,0,1-1-13.91,17.82,17.82,0,0,1,.11-2.13v-1.9c0-.36,0-.54-.11-.54v-1.91l.11-7.43q.1-3.39.85-10.82a36.6,36.6,0,0,1,2.44-9.87,8,8,0,0,1,1.91-3.24,3.71,3.71,0,0,1,2.65-1.12,18.42,18.42,0,0,1,7.64,1.54,16.07,16.07,0,0,1,5.73,4.31,23.94,23.94,0,0,1,3.61,6.53,38.73,38.73,0,0,1,2.13,8.22,67.49,67.49,0,0,1,.63,9.44v.85c0,2.19,0,4.18.11,5.94l.1,6.06Q478.87,327.68,464.65,327.68Zm-.42-4.45a5,5,0,0,0,3.5-1.54,10.12,10.12,0,0,0,2.45-4.2,41.24,41.24,0,0,0,2.43-11.68c.36-3.6.54-6.72.54-9.34q0-4.77-.75-12.51-.63-8.19-.63-12.21v-1.91a11.51,11.51,0,0,0-2.71-7,7.72,7.72,0,0,0-6.11-3c-2.4,0-4,1.37-4.78,4.13a28.54,28.54,0,0,0-1.05,8.49c0,1.34,0,2.48.11,3.4v2.86l-.23,4.89c-.14,1.48-.21,3.11-.21,4.87,0,3.83.11,7.61.33,11.36a92.85,92.85,0,0,0,2.12,15.5Q460.94,323.23,464.23,323.23Zm51.26,4.24q-2.44,0-5.2-5.31-4.14-8-8.17-26.21c-.78-3.32-1.42-6.41-1.91-9.24q-3.82,7.65-3.83,18.47v19.64c0,1.63-.7,2.44-2.11,2.44a3.72,3.72,0,0,1-2.6-.91,3.17,3.17,0,0,1-1-2.49V291.7q0-4.67,1.06-17.19,1-10.93,1.06-17.19a3.08,3.08,0,0,1,3.08-2,3.28,3.28,0,0,1,3.29,3.29v.32q-1.39,2.32-1.39,19.32V282l3.93-7.74q3.62-7.55,6.8-12.95,3-5.31,4.35-5.31a5.44,5.44,0,0,1,2.92.74,2.35,2.35,0,0,1,1.22,2.13l-2.55,4.24q-8,12.86-8.92,14.86c0,1.21,0,2.27-.1,3.19l-.11,3.18q0,4.58,3.66,17t6.11,16.5l1.38,1.91a8.7,8.7,0,0,1,2,4.88,2.49,2.49,0,0,1-.91,2A3,3,0,0,1,515.49,327.47Zm16.66-57.84c-.56-.14-.84-.78-.84-1.91a43,43,0,0,1,1.16-7.64,60.25,60.25,0,0,1,3.19-10.3q2.13-5.42,4.35-5.41c1.27,0,1.91.77,1.91,2.32a42.09,42.09,0,0,1-5.41,19.22Q534.07,269.63,532.15,269.63Zm28,57.52a6.9,6.9,0,0,1-3.24-1.38A4,4,0,0,1,555.4,323l1.17-1.81a7.59,7.59,0,0,1,2,.43A14.67,14.67,0,0,0,561,322a4.59,4.59,0,0,0,3.45-1.69,10.75,10.75,0,0,0,2.29-4.47,35.22,35.22,0,0,0,1.38-9.12q0-7-4.46-14.75l-1.17-2q-2-3.5-3.39-6.25a37.59,37.59,0,0,1-2.34-5.95,28,28,0,0,1-1.27-8.27,25.52,25.52,0,0,1,2.12-9.78,10.11,10.11,0,0,1,3-4,7,7,0,0,1,4.41-1.54,5.87,5.87,0,0,1,3.55,1.22,3.56,3.56,0,0,1,1.65,2.92,1.7,1.7,0,0,1-.74,1.48,3,3,0,0,1-1.81.54,4.18,4.18,0,0,1-2.22-.65q-2.34.12-3.72,4.14a21.44,21.44,0,0,0-1.17,6.16,21.14,21.14,0,0,0,1,6.22,27.51,27.51,0,0,0,2.43,5.67l2.34,4.24,3.72,7a30.79,30.79,0,0,1,2.38,6.9,35.53,35.53,0,0,1,.91,8,26.69,26.69,0,0,1-3,12.32,12,12,0,0,1-4.19,4.77,10.58,10.58,0,0,1-6,1.81Zm58.27.22A11.14,11.14,0,0,1,613,326a14,14,0,0,1-4.3-3.72,24.11,24.11,0,0,1-2.86-5.67,41,41,0,0,1-1.91-7.18,107.56,107.56,0,0,1-1.7-16.44c-.08-1.63-.11-4.42-.11-8.39V277.9c.07-1.9.11-3.89.11-5.94a51.88,51.88,0,0,1,.74-9.87,16.92,16.92,0,0,1-.32-3.29,12.64,12.64,0,0,1,4.78-10.29,18.41,18.41,0,0,1,12.1-3.93,9.28,9.28,0,0,1,5.09,1.49,4.32,4.32,0,0,1,2.34,3.71,2.05,2.05,0,0,1-.85,1.7,3.39,3.39,0,0,1-2.13.64,8.71,8.71,0,0,1-2.27-.33,2.22,2.22,0,0,1-1.54-.95h-1.39v-.22a11.9,11.9,0,0,0-6.58,1.71,8.91,8.91,0,0,0-3,4.56,13.48,13.48,0,0,0-.63,3,28.46,28.46,0,0,0-.21,3.28,30.12,30.12,0,0,0-.12,3.4l.22,3.72.11,3.6a18.88,18.88,0,0,1-.43,3.72,22.7,22.7,0,0,0-.53,3.71v2.55q0,4.14.32,11.35a64.13,64.13,0,0,0,1.38,12.11,23.92,23.92,0,0,0,3.61,9.55,7.81,7.81,0,0,0,6.89,4,8.24,8.24,0,0,0,4.47-1.92c1.9-1.26,3.25-1.9,4-1.9a4.52,4.52,0,0,1,3.08,1.59,7,7,0,0,1-3,6,14.91,14.91,0,0,1-6.58,2.44A33.74,33.74,0,0,1,618.45,327.37Zm39.9-1.7q-3.6,0-3.61-17.52l.12-6,.1-4.89v-1.38a16.69,16.69,0,0,0,.11-2,.86.86,0,0,0-.33-.53.89.89,0,0,1-.31-.52v-.12a5.53,5.53,0,0,1-1.91.22,16.62,16.62,0,0,1-3.4-.43l-3.39-.52v12.2c0,1.84.1,4.75.31,8.71s.32,6.79.32,8.69a4.62,4.62,0,0,1-.84,2.77,2.64,2.64,0,0,1-2.23,1.17c-1.34,0-2.3-1.32-2.87-3.94a52.38,52.38,0,0,1-.85-10.51l.21-8.59c.08-2.41.11-4.95.11-7.64v-3.29a13.19,13.19,0,0,0-.11-2.23v-.52l.32-6.16q0-4.05-.32-12t-.32-12a3.28,3.28,0,0,1,.84-2.23,2.75,2.75,0,0,1,2.13-1c2.26,0,3.4,2.12,3.4,6.37l-.22,13.16q-.21,5.94-.21,13.27a20.51,20.51,0,0,0,5.74.54h3.93a4.13,4.13,0,0,0,.21-1.28q0-5.1-.63-15.08-.75-9.33-.75-15.18a2.55,2.55,0,0,1,.89-2,3.22,3.22,0,0,1,2.18-.8,6.41,6.41,0,0,1,2.13.54l1,.42q0,15.07,1.05,40.23l1,26.85a2.78,2.78,0,0,1-1.12,2.34A4.18,4.18,0,0,1,658.35,325.67Zm28.88,2a8.31,8.31,0,0,1-5.1-1.75,13,13,0,0,1-3.82-4.72,42.27,42.27,0,0,1-3.82-14.11,105.78,105.78,0,0,1-1-13.91,17.82,17.82,0,0,1,.11-2.13v-1.9c0-.36,0-.54-.11-.54v-1.91l.11-7.43q.11-3.39.85-10.82a37,37,0,0,1,2.44-9.87,8.09,8.09,0,0,1,1.91-3.24,3.73,3.73,0,0,1,2.65-1.12,18.39,18.39,0,0,1,7.64,1.54,16.07,16.07,0,0,1,5.73,4.31,23.94,23.94,0,0,1,3.61,6.53,37.57,37.57,0,0,1,2.13,8.22,67.49,67.49,0,0,1,.63,9.44v.85c0,2.19,0,4.18.11,5.94l.1,6.06Q701.44,327.68,687.23,327.68Zm-.43-4.45a5,5,0,0,0,3.5-1.54,10,10,0,0,0,2.45-4.2,41.24,41.24,0,0,0,2.44-11.68c.35-3.6.53-6.72.53-9.34q0-4.77-.74-12.51-.65-8.19-.64-12.21v-1.91a11.45,11.45,0,0,0-2.71-7,7.7,7.7,0,0,0-6.11-3c-2.4,0-4,1.37-4.77,4.13a28.18,28.18,0,0,0-1.06,8.49c0,1.34,0,2.48.11,3.4v2.86l-.22,4.89c-.14,1.48-.21,3.11-.21,4.87,0,3.83.1,7.61.32,11.36a91.83,91.83,0,0,0,2.13,15.5C682.94,320.61,684.61,323.23,686.8,323.23Zm40.44,3.92a19.31,19.31,0,0,1-4.94-.69,14.86,14.86,0,0,1-4-1.54q-7.11-4.56-7.11-24.94v-8.71c0-2.82,0-5.35.11-7.58s.21-4.66.42-7.27a44.54,44.54,0,0,1,1-6.74,33.86,33.86,0,0,1,2.13-5.9A13,13,0,0,1,718,259a15.43,15.43,0,0,1,4.84-2.87,16.28,16.28,0,0,1,6.58-1.17,3.63,3.63,0,0,1,2.44.74,2.42,2.42,0,0,1,.84,1.91,2.89,2.89,0,0,1-.7,1.91,2.38,2.38,0,0,1-1.64,1h-5q-2.12,0-3.71,2.65a19,19,0,0,0-2.24,6.9A77.94,77.94,0,0,0,718,282.79v.52l-.22,10.19c-.14,3-.21,6.48-.21,10.3a53.39,53.39,0,0,0,.32,6.58,21.08,21.08,0,0,0,1.8,6.37,7.82,7.82,0,0,0,4.36,4.14,9.43,9.43,0,0,0,3.5.63,4,4,0,0,0,2.33-.84,4.11,4.11,0,0,1,2.28.58,2,2,0,0,1,.9,1.76Q733.07,327.15,727.24,327.15Zm27.81.53a8.31,8.31,0,0,1-5.1-1.75,13.1,13.1,0,0,1-3.82-4.72,42.27,42.27,0,0,1-3.82-14.11,105.78,105.78,0,0,1-1-13.91,15.74,15.74,0,0,1,.12-2.13v-1.9q0-.54-.12-.54v-1.91l.12-7.43c.06-2.26.35-5.87.84-10.82a37,37,0,0,1,2.44-9.87,8.1,8.1,0,0,1,1.92-3.24,3.71,3.71,0,0,1,2.65-1.12,18.37,18.37,0,0,1,7.63,1.54,16.1,16.1,0,0,1,5.74,4.31,23.66,23.66,0,0,1,3.6,6.53,37.57,37.57,0,0,1,2.13,8.22,67.44,67.44,0,0,1,.64,9.44v.85c0,2.19,0,4.18.11,5.94l.1,6.06Q769.27,327.68,755.05,327.68Zm-.42-4.45a5,5,0,0,0,3.49-1.54,10,10,0,0,0,2.45-4.2A40.9,40.9,0,0,0,763,305.81c.36-3.6.54-6.72.54-9.34q0-4.77-.75-12.51-.63-8.19-.64-12.21v-1.91a11.45,11.45,0,0,0-2.71-7,7.68,7.68,0,0,0-6.1-3c-2.41,0-4,1.37-4.78,4.13a28.18,28.18,0,0,0-1.06,8.49c0,1.34,0,2.48.11,3.4v2.86l-.22,4.89c-.14,1.48-.21,3.11-.21,4.87,0,3.83.11,7.61.32,11.36a91.83,91.83,0,0,0,2.13,15.5Q751.34,323.23,754.63,323.23Zm42.56,4.14a30.19,30.19,0,0,0-9.45-1.28,6.74,6.74,0,0,1-3.61,1.06A2.75,2.75,0,0,1,782,326a3.75,3.75,0,0,1-.89-2.38q0-8.91.73-23.78.65-15.81.65-23.66v-.75q-.65-6.69-.65-10,0-10.1,3.72-10.09a2.74,2.74,0,0,1,2.65,2.65,39.56,39.56,0,0,1-.31,4,34.94,34.94,0,0,0-.32,4q0,7.13.11,12.84t.1,12.74a14.47,14.47,0,0,0-.54,4.46v1.27l-.21,8.38c-.14,2.48-.21,5.32-.21,8.5,0,4.88,1.17,7.33,3.51,7.33.14,0,.37,0,.68-.05a11.06,11.06,0,0,1,1.33-.07c.64-.06,1.45-.09,2.44-.09q5.73,0,5.73,3.18a2.21,2.21,0,0,1-1,1.79A5,5,0,0,1,797.19,327.37Zm33-.75a6.87,6.87,0,0,1-3.62-.74,3,3,0,0,1-1.16-2.76,88.75,88.75,0,0,0-1.07-10.82l-.42-2.23-10.51-1.59q-.63,2.43-1.8,9.86-.64,5.21-2,6.9a2.53,2.53,0,0,1-2.12,1,3.82,3.82,0,0,1-2.34-.79,2.39,2.39,0,0,1-1.06-2l.21-.53.11-.43A470.56,470.56,0,0,0,815,268.67c0-.28,0-.76.1-1.43s.15-1.64.23-2.92q.3-3.93.68-6.26a8.25,8.25,0,0,1,1.22-3.5h3.62a4.55,4.55,0,0,1,2.54.69,2.2,2.2,0,0,1,1.07,1.95q0,8.08,2.22,24,2.13,16.33,2.13,22.92a24.51,24.51,0,0,0,.52,3.29,19.57,19.57,0,0,1,.54,3.18q0,.75,1,6.37a47.68,47.68,0,0,1,1,6.58v.11C831.89,325.21,831.33,326.2,830.2,326.62Zm-7-20.38a20.57,20.57,0,0,1-.32-3.92,221.5,221.5,0,0,0-1.7-24.42l-1.06-11q-4.56,24.94-6.27,37.68C814.91,305.25,818,305.81,823.19,306.24ZM847,324l-.1-4.13c-.07-1.2-.11-2.55-.11-4l.11-3.61q-.33-1.17-1.6-23.23t-1.48-28.35q-6.16-.21-7.85-1.27a2.37,2.37,0,0,1-1.17-1.91,1.88,1.88,0,0,1,1.1-1.53,4.25,4.25,0,0,1,2.29-.7c2,0,4.39.14,7.22.42a55.06,55.06,0,0,0,7.22.54h1.7c2.19,0,3.29.85,3.29,2.55a2.44,2.44,0,0,1-1.07,2.06,3.93,3.93,0,0,1-2.44.8,16.79,16.79,0,0,1-2.76-.33l-2.11-.42-.11.54-.12.53q0,9.45,1.82,30.14,1.69,19.43,1.69,30.14a2.87,2.87,0,0,1-1.12,2.24,3.69,3.69,0,0,1-2.48.94Zm26.11,3.09a3.75,3.75,0,0,1-2.5-1,3.42,3.42,0,0,1-1.22-2.34v-4.87c-.06-.64-.09-1.39-.09-2.23q0-2.23-.33-6.79l-.21-6.81q0-5.19.32-15.48.44-9.24.43-15.5a44.45,44.45,0,0,0-.33-4.47c-.2-2.05-.31-3.53-.31-4.45q0-7.54,4.46-7.54a28.9,28.9,0,0,1,8.12,1.38q4.61,1.38,4.61,3.3a2.72,2.72,0,0,1-.91,2,6.59,6.59,0,0,1-2.16,1.44,42.28,42.28,0,0,0-8.07-2.13c.07,1.06.11,2.58.11,4.56q0,4.25-.11,7.64-.33,5.1-.33,7.65l.33,1.69,1.7-.1a17.64,17.64,0,0,1,2.12-.11q5.1,0,5.1,3a2.47,2.47,0,0,1-1,2,3.69,3.69,0,0,1-2.44.79,16.07,16.07,0,0,1-3-.21h-2.65q.21,2.76.21,8.06t-.11,9.56q-.33,6.48-.33,9.66c0,4,.08,5.95.23,5.95l3.49-.12c1.21-.06,2.66-.09,4.36-.09,2.68,0,4,.84,4,2.53a2.53,2.53,0,0,1-1.33,2.29,6.18,6.18,0,0,1-3.24.8Zm27.17.1a6.9,6.9,0,0,1-3.23-1.38,4,4,0,0,1-1.54-2.75l1.17-1.81a7.59,7.59,0,0,1,2,.43,14.55,14.55,0,0,0,2.44.31,4.59,4.59,0,0,0,3.45-1.69,10.74,10.74,0,0,0,2.28-4.47,34.85,34.85,0,0,0,1.39-9.12q0-7-4.46-14.75l-1.17-2q-2-3.5-3.39-6.25a37.59,37.59,0,0,1-2.34-5.95,28,28,0,0,1-1.27-8.27,25.49,25.49,0,0,1,2.11-9.78,10.23,10.23,0,0,1,3-4,7,7,0,0,1,4.41-1.54,5.87,5.87,0,0,1,3.55,1.22,3.56,3.56,0,0,1,1.65,2.92,1.73,1.73,0,0,1-.74,1.48,3,3,0,0,1-1.81.54,4.18,4.18,0,0,1-2.22-.65q-2.34.12-3.72,4.14a21.44,21.44,0,0,0-1.17,6.16,21.14,21.14,0,0,0,1,6.22,27,27,0,0,0,2.43,5.67l2.34,4.24,3.72,7a30.79,30.79,0,0,1,2.38,6.9,35.52,35.52,0,0,1,.9,8,26.81,26.81,0,0,1-3,12.32,12,12,0,0,1-4.19,4.77,10.59,10.59,0,0,1-6,1.81Z" transform="translate(-10.49 -93.44)"/></svg>