<svg id="Layer_1" data-name="Layer 1" xmlns="http://www.w3.org/2000/svg" viewBox="0 0 505 205"><defs><style>.cls-1{fill:none;stroke:#000;stroke-width:5px;}.cls-1,.cls-2{stroke-miterlimit:10;}.cls-2{fill:#754c24;stroke:#f9f9f9;}</style></defs><title>Chocolate Logo</title><path class="cls-1" d="M776.5,201.5v200h-500V258.92a14.76,14.76,0,0,0,1.5.08,14,14,0,0,0,12.9-19.45.24.24,0,0,1,.33-.32A18.23,18.23,0,0,0,298,241a14,14,0,0,0,14-14c0-2.23-1.48-5.44-2.41-7.32a.18.18,0,0,1,.1-.25c5.19-2.05,9.81-6,9.81-11.93a13.89,13.89,0,0,0-1.35-6Z" transform="translate(-274 -199)"/><line class="cls-1" x1="130.5" y1="3" x2="129.5" y2="203"/><line class="cls-1" x1="176.5" y1="3" x2="175.5" y2="203"/><line class="cls-1" x1="2" y1="102" x2="130" y2="102"/><line class="cls-1" x1="66.5" y1="202" x2="66.5" y2="2"/><line class="cls-1" x1="3" y1="103" x2="131" y2="103"/><line class="cls-1" x1="131" y1="103" x2="3" y2="103"/><path class="cls-2" d="M479.61,325.26a6,6,0,0,1-2.93-.74,7.39,7.39,0,0,1-2.3-2,12.56,12.56,0,0,1-1.53-3,22.12,22.12,0,0,1-1-3.84,56.84,56.84,0,0,1-.91-8.79c0-.87-.06-2.36-.06-4.48v-3.58q.06-1.53.06-3.18a27.07,27.07,0,0,1,.4-5.28,8.41,8.41,0,0,1-.17-1.76,6.78,6.78,0,0,1,2.55-5.5,9.85,9.85,0,0,1,6.47-2.1,4.86,4.86,0,0,1,2.72.8,2.28,2.28,0,0,1,1.25,2,1.09,1.09,0,0,1-.45.91,1.82,1.82,0,0,1-1.14.34,5,5,0,0,1-1.21-.17,1.23,1.23,0,0,1-.83-.52h-.74v-.11a6.38,6.38,0,0,0-3.52.91,4.78,4.78,0,0,0-1.59,2.44,7.66,7.66,0,0,0-.34,1.59,16.58,16.58,0,0,0-.11,1.76,17.16,17.16,0,0,0-.06,1.81l.11,2,.06,1.93a10.38,10.38,0,0,1-.22,2,12.21,12.21,0,0,0-.29,2V302c0,1.47.06,3.5.18,6.07a33.94,33.94,0,0,0,.73,6.47,12.77,12.77,0,0,0,1.93,5.11,4.18,4.18,0,0,0,3.69,2.16,4.45,4.45,0,0,0,2.39-1,5,5,0,0,1,2.15-1,2.45,2.45,0,0,1,1.65.85,3.74,3.74,0,0,1-1.59,3.24,7.92,7.92,0,0,1-3.52,1.3C480.66,325.22,480.06,325.26,479.61,325.26Zm18,.17a4.47,4.47,0,0,1-2.73-.94,7,7,0,0,1-2-2.52,22.38,22.38,0,0,1-2-7.55,55.35,55.35,0,0,1-.52-7.44,8.84,8.84,0,0,1,.06-1.13v-1c0-.19,0-.29-.06-.29v-1l.06-4q.06-1.82.46-5.79a19.63,19.63,0,0,1,1.3-5.28,4.26,4.26,0,0,1,1-1.73,2,2,0,0,1,1.42-.6,9.75,9.75,0,0,1,4.08.82,8.5,8.5,0,0,1,3.07,2.31,12.7,12.7,0,0,1,1.93,3.49,20.64,20.64,0,0,1,1.14,4.39,36.89,36.89,0,0,1,.34,5v.46q0,1.75.06,3.18l.05,3.23Q505.2,325.43,497.6,325.43Zm-.23-2.38a2.65,2.65,0,0,0,1.87-.83,5.39,5.39,0,0,0,1.31-2.24,22,22,0,0,0,1.3-6.25c.19-1.93.29-3.59.29-5q0-2.55-.4-6.69-.35-4.38-.34-6.53v-1a6.14,6.14,0,0,0-1.45-3.75,4.12,4.12,0,0,0-3.27-1.59,2.57,2.57,0,0,0-2.55,2.21,15.12,15.12,0,0,0-.56,4.54c0,.72,0,1.33.06,1.82v1.53l-.12,2.61q-.12,1.2-.12,2.61,0,3.07.18,6.07a50,50,0,0,0,1.13,8.29C495.31,321.64,496.19,323.05,497.37,323.05ZM518,325.43a4.49,4.49,0,0,1-2.73-.94,7,7,0,0,1-2-2.52,22.38,22.38,0,0,1-2-7.55,57,57,0,0,1-.51-7.44,8.84,8.84,0,0,1,.06-1.13v-1c0-.19,0-.29-.06-.29v-1l.06-4q0-1.82.45-5.79a19.63,19.63,0,0,1,1.3-5.28,4.27,4.27,0,0,1,1-1.73,2,2,0,0,1,1.41-.6,9.8,9.8,0,0,1,4.09.82,8.55,8.55,0,0,1,3.06,2.31,12.7,12.7,0,0,1,1.93,3.49,20.64,20.64,0,0,1,1.14,4.39,35.37,35.37,0,0,1,.34,5v.46q0,1.75.06,3.18l0,3.23Q525.63,325.43,518,325.43Zm-.23-2.38a2.65,2.65,0,0,0,1.87-.83A5.28,5.28,0,0,0,521,320a22,22,0,0,0,1.31-6.25c.19-1.93.28-3.59.28-5q0-2.55-.4-6.69c-.22-2.92-.34-5.1-.34-6.53v-1a6.08,6.08,0,0,0-1.45-3.75,4.11,4.11,0,0,0-3.26-1.59,2.58,2.58,0,0,0-2.56,2.21,15.45,15.45,0,0,0-.56,4.54c0,.72,0,1.33.06,1.82v1.53l-.12,2.61c-.08.8-.11,1.67-.11,2.61,0,2,0,4.07.17,6.07a49,49,0,0,0,1.14,8.29C515.74,321.64,516.63,323.05,517.8,323.05Zm27.41,2.26c-.87,0-1.79-.94-2.78-2.84q-2.2-4.25-4.37-14c-.41-1.78-.75-3.43-1-4.94a21.77,21.77,0,0,0-2,9.87V323.9c0,.87-.38,1.3-1.13,1.3a2,2,0,0,1-1.39-.48,1.7,1.7,0,0,1-.54-1.33V306.18q0-2.49.56-9.19.57-5.85.57-9.19a1.64,1.64,0,0,1,1.65-1.08,1.68,1.68,0,0,1,1.24.51,1.71,1.71,0,0,1,.51,1.25v.17q-.74,1.25-.74,10.33v2l2.11-4.14q1.92-4,3.63-6.93c1.06-1.89,1.83-2.84,2.33-2.84a3,3,0,0,1,1.56.4,1.28,1.28,0,0,1,.65,1.14l-1.36,2.27q-4.26,6.87-4.77,7.95c0,.64,0,1.21,0,1.7l-.06,1.7q0,2.44,2,9.12a44.31,44.31,0,0,0,3.27,8.82l.74,1a4.66,4.66,0,0,1,1.07,2.61,1.37,1.37,0,0,1-.48,1.05A1.64,1.64,0,0,1,545.21,325.31Zm8.91-30.93q-.45-.11-.45-1a22.39,22.39,0,0,1,.63-4.08,31.27,31.27,0,0,1,1.7-5.51c.76-1.93,1.53-2.89,2.33-2.89s1,.41,1,1.24a22.5,22.5,0,0,1-2.9,10.28C555.58,293.72,554.81,294.38,554.12,294.38Zm15,30.76a3.63,3.63,0,0,1-1.73-.74,2.11,2.11,0,0,1-.82-1.47l.62-1a4.12,4.12,0,0,1,1.08.22,6.66,6.66,0,0,0,1.3.17,2.42,2.42,0,0,0,1.84-.9,5.82,5.82,0,0,0,1.23-2.39,19,19,0,0,0,.74-4.88A16,16,0,0,0,571,306.3l-.63-1.08c-.72-1.25-1.32-2.36-1.82-3.35a20.64,20.64,0,0,1-1.25-3.18,15.05,15.05,0,0,1-.67-4.42,13.53,13.53,0,0,1,1.13-5.23,5.44,5.44,0,0,1,1.61-2.12,3.72,3.72,0,0,1,2.36-.82,3.1,3.1,0,0,1,1.9.65,1.88,1.88,0,0,1,.88,1.56.92.92,0,0,1-.39.79,1.64,1.64,0,0,1-1,.29A2.25,2.25,0,0,1,572,289c-.83,0-1.5.78-2,2.22a11.25,11.25,0,0,0-.62,3.29,11.42,11.42,0,0,0,.51,3.33,14.34,14.34,0,0,0,1.3,3l1.25,2.27,2,3.74a16.44,16.44,0,0,1,1.27,3.69,18.56,18.56,0,0,1,.49,4.26,14.33,14.33,0,0,1-1.59,6.59,6.51,6.51,0,0,1-2.24,2.55,5.72,5.72,0,0,1-3.21,1Zm31.16.12a6,6,0,0,1-2.92-.74,7.28,7.28,0,0,1-2.3-2,12.56,12.56,0,0,1-1.53-3,20.47,20.47,0,0,1-1-3.84,56.84,56.84,0,0,1-.91-8.79c0-.87-.06-2.36-.06-4.48v-3.58q.06-1.53.06-3.18a27.07,27.07,0,0,1,.4-5.28,8.4,8.4,0,0,1-.18-1.76,6.76,6.76,0,0,1,2.56-5.5,9.85,9.85,0,0,1,6.47-2.1,4.89,4.89,0,0,1,2.72.8,2.3,2.3,0,0,1,1.25,2,1.09,1.09,0,0,1-.45.91,1.82,1.82,0,0,1-1.14.34,5,5,0,0,1-1.22-.17,1.21,1.21,0,0,1-.82-.52h-.74v-.11a6.38,6.38,0,0,0-3.52.91,4.78,4.78,0,0,0-1.59,2.44,7.66,7.66,0,0,0-.34,1.59,16.58,16.58,0,0,0-.11,1.76,17.16,17.16,0,0,0-.06,1.81l.11,2,.06,1.93a10.38,10.38,0,0,1-.22,2,12.21,12.21,0,0,0-.29,2V302c0,1.47.06,3.5.17,6.07a34,34,0,0,0,.74,6.47,12.77,12.77,0,0,0,1.93,5.11A4.18,4.18,0,0,0,601,321.8a4.43,4.43,0,0,0,2.38-1,5,5,0,0,1,2.16-1,2.45,2.45,0,0,1,1.65.85,3.74,3.74,0,0,1-1.59,3.24,8,8,0,0,1-3.52,1.3A18.18,18.18,0,0,1,600.27,325.26Zm21.34-.91q-1.93,0-1.93-9.37l.06-3.23,0-2.61v-.74a8.32,8.32,0,0,0,.06-1.08.43.43,0,0,0-.17-.28c-.11-.12-.17-.21-.17-.28v-.06a3.31,3.31,0,0,1-1,.11,9.28,9.28,0,0,1-1.82-.23l-1.81-.28v6.53c0,1,0,2.54.16,4.66s.18,3.62.18,4.64a2.47,2.47,0,0,1-.45,1.48,1.42,1.42,0,0,1-1.2.63c-.71,0-1.23-.7-1.53-2.11a28.39,28.39,0,0,1-.45-5.62l.11-4.59c0-1.29.06-2.65.06-4.09v-1.76a7.31,7.31,0,0,0-.06-1.19v-.28l.17-3.29q0-2.16-.17-6.42c-.12-2.84-.17-5-.17-6.41a1.75,1.75,0,0,1,.45-1.19,1.46,1.46,0,0,1,1.14-.52c1.21,0,1.81,1.14,1.81,3.41l-.11,7c-.08,2.12-.11,4.48-.11,7.1a11.08,11.08,0,0,0,3.06.28h2.1a2.08,2.08,0,0,0,.12-.68c0-1.82-.12-4.5-.34-8.07-.27-3.32-.4-6-.4-8.11a1.34,1.34,0,0,1,.48-1.05,1.67,1.67,0,0,1,1.16-.43,3.48,3.48,0,0,1,1.14.29l.51.22q0,8.07.57,21.52l.51,14.36a1.5,1.5,0,0,1-.6,1.25A2.23,2.23,0,0,1,621.61,324.35Zm15.44,1.08a4.52,4.52,0,0,1-2.73-.94,7,7,0,0,1-2-2.52,22.85,22.85,0,0,1-2-7.55,57,57,0,0,1-.51-7.44,8.84,8.84,0,0,1,.06-1.13v-1c0-.19,0-.29-.06-.29v-1l.06-4q0-1.82.45-5.79a19.63,19.63,0,0,1,1.3-5.28,4.27,4.27,0,0,1,1-1.73,2,2,0,0,1,1.41-.6,9.76,9.76,0,0,1,4.09.82,8.47,8.47,0,0,1,3.06,2.31,12.44,12.44,0,0,1,1.93,3.49,19.52,19.52,0,0,1,1.14,4.39,35.37,35.37,0,0,1,.34,5v.46q0,1.75.06,3.18l0,3.23Q644.65,325.43,637.05,325.43Zm-.23-2.38a2.63,2.63,0,0,0,1.87-.83A5.28,5.28,0,0,0,640,320a22,22,0,0,0,1.31-6.25c.19-1.93.28-3.59.28-5q0-2.55-.4-6.69-.33-4.38-.33-6.53v-1a6.2,6.2,0,0,0-1.45-3.75,4.13,4.13,0,0,0-3.27-1.59,2.56,2.56,0,0,0-2.55,2.21,15.09,15.09,0,0,0-.57,4.54c0,.72,0,1.33.06,1.82v1.53l-.12,2.61c-.08.8-.11,1.67-.11,2.61,0,2,0,4.07.17,6.07a49,49,0,0,0,1.14,8.29C634.76,321.64,635.65,323.05,636.82,323.05Zm21.63,2.09a10.46,10.46,0,0,1-2.64-.36,8,8,0,0,1-2.13-.83q-3.81-2.44-3.81-13.34V306c0-1.51,0-2.87.06-4.06s.12-2.49.23-3.88a24.92,24.92,0,0,1,.51-3.61,18.6,18.6,0,0,1,1.14-3.15,6.94,6.94,0,0,1,1.67-2.55,8.27,8.27,0,0,1,2.59-1.54,8.81,8.81,0,0,1,3.52-.62,1.89,1.89,0,0,1,1.3.4,1.29,1.29,0,0,1,.45,1,1.55,1.55,0,0,1-.37,1,1.3,1.3,0,0,1-.88.51h-2.67a2.39,2.39,0,0,0-2,1.42,10,10,0,0,0-1.2,3.69,42.36,42.36,0,0,0-.73,6.81v.28l-.12,5.45c-.07,1.63-.11,3.46-.11,5.51a30,30,0,0,0,.17,3.51,11.15,11.15,0,0,0,1,3.41,4.2,4.2,0,0,0,2.33,2.22,5.1,5.1,0,0,0,1.87.33,2.1,2.1,0,0,0,1.24-.45,2.17,2.17,0,0,1,1.22.32,1,1,0,0,1,.49.93C661.57,324.41,660.53,325.14,658.45,325.14Zm14.87.29a4.49,4.49,0,0,1-2.73-.94,7,7,0,0,1-2-2.52,22.38,22.38,0,0,1-2-7.55A57,57,0,0,1,666,307a8.84,8.84,0,0,1,.06-1.13v-1c0-.19,0-.29-.06-.29v-1l.06-4q0-1.82.45-5.79a19.63,19.63,0,0,1,1.3-5.28,4.27,4.27,0,0,1,1-1.73,2,2,0,0,1,1.41-.6,9.8,9.8,0,0,1,4.09.82,8.55,8.55,0,0,1,3.06,2.31,12.7,12.7,0,0,1,1.93,3.49,20.64,20.64,0,0,1,1.14,4.39,35.37,35.37,0,0,1,.34,5v.46q0,1.75.06,3.18l0,3.23Q680.92,325.43,673.32,325.43Zm-.23-2.38a2.65,2.65,0,0,0,1.87-.83,5.28,5.28,0,0,0,1.31-2.24,22,22,0,0,0,1.31-6.25c.19-1.93.28-3.59.28-5q0-2.55-.4-6.69c-.22-2.92-.34-5.1-.34-6.53v-1a6.08,6.08,0,0,0-1.45-3.75,4.11,4.11,0,0,0-3.26-1.59,2.58,2.58,0,0,0-2.56,2.21,15.45,15.45,0,0,0-.56,4.54c0,.72,0,1.33.06,1.82v1.53l-.12,2.61c-.08.8-.11,1.67-.11,2.61,0,2,0,4.07.17,6.07a49,49,0,0,0,1.14,8.29C671,321.64,671.92,323.05,673.09,323.05Zm22.76,2.21a16,16,0,0,0-5.05-.68,3.64,3.64,0,0,1-1.93.56,1.45,1.45,0,0,1-1.16-.6,2,2,0,0,1-.48-1.27q0-4.77.39-12.72.35-8.44.35-12.65v-.4c-.24-2.38-.35-4.16-.35-5.33q0-5.4,2-5.4a1.45,1.45,0,0,1,1.41,1.42,21.22,21.22,0,0,1-.16,2.16,18.26,18.26,0,0,0-.17,2.16c0,2.54,0,4.82.06,6.86s0,4.28,0,6.81a7.87,7.87,0,0,0-.29,2.39v.68l-.11,4.48c-.08,1.33-.11,2.84-.11,4.55,0,2.61.62,3.91,1.87,3.91a2.93,2.93,0,0,0,.37,0,6.07,6.07,0,0,1,.71,0c.34,0,.78-.05,1.3-.05,2.05,0,3.07.57,3.07,1.7a1.17,1.17,0,0,1-.51,1A2.62,2.62,0,0,1,695.85,325.26Zm17.66-.4a3.65,3.65,0,0,1-1.94-.4A1.62,1.62,0,0,1,711,323a48.38,48.38,0,0,0-.57-5.79l-.23-1.19-5.62-.85c-.22.87-.54,2.62-1,5.27a7.89,7.89,0,0,1-1.08,3.69,1.33,1.33,0,0,1-1.14.52,2.08,2.08,0,0,1-1.25-.43,1.28,1.28,0,0,1-.56-1l.11-.29.06-.22a250.71,250.71,0,0,0,5.67-28.78c0-.15,0-.4.06-.76s.08-.88.12-1.57c.11-1.4.23-2.51.36-3.34a4.4,4.4,0,0,1,.66-1.88h1.93a2.41,2.41,0,0,1,1.36.38,1.16,1.16,0,0,1,.57,1,102,102,0,0,0,1.19,12.83,111,111,0,0,1,1.14,12.26,12.84,12.84,0,0,0,.28,1.76,10.37,10.37,0,0,1,.28,1.7c0,.26.19,1.4.57,3.4a25.69,25.69,0,0,1,.51,3.52v.06A1.49,1.49,0,0,1,713.51,324.86ZM709.75,314a11.36,11.36,0,0,1-.16-2.1,120.89,120.89,0,0,0-.91-13.05l-.57-5.9q-2.45,13.33-3.35,20.15C705.33,313.43,707,313.73,709.75,314Zm12.72,9.48-.05-2.21q-.06-1-.06-2.16l.06-1.93q-.18-.63-.86-12.43t-.79-15.15a10.44,10.44,0,0,1-4.2-.68,1.28,1.28,0,0,1-.63-1c0-.3.2-.57.6-.82a2.32,2.32,0,0,1,1.22-.37c1.06,0,2.34.08,3.86.23a29.8,29.8,0,0,0,3.86.28h.91c1.17,0,1.76.46,1.76,1.37a1.31,1.31,0,0,1-.57,1.1,2.08,2.08,0,0,1-1.31.43,8.64,8.64,0,0,1-1.47-.18l-1.13-.22-.06.28-.06.29q0,5.06,1,16.12c.6,6.92.9,12.3.9,16.11a1.53,1.53,0,0,1-.6,1.2,2,2,0,0,1-1.33.51Zm14,1.65a2,2,0,0,1-1.33-.51,1.81,1.81,0,0,1-.66-1.25v-2.61c0-.34-.05-.74-.05-1.19,0-.8-.06-2-.17-3.63l-.11-3.64c0-1.86,0-4.62.17-8.28q.22-5,.22-8.29a22.67,22.67,0,0,0-.17-2.39c-.11-1.1-.17-1.89-.17-2.38q0-4,2.39-4a15.16,15.16,0,0,1,4.34.74c1.64.49,2.47,1.08,2.47,1.76a1.44,1.44,0,0,1-.49,1.05,3.49,3.49,0,0,1-1.16.76,23.64,23.64,0,0,0-4.31-1.13c0,.57.06,1.38.06,2.44q0,2.26-.06,4.08c-.12,1.82-.18,3.18-.18,4.09l.18.91.91-.06a8.84,8.84,0,0,1,1.13-.06q2.73,0,2.73,1.59a1.32,1.32,0,0,1-.52,1.06,2,2,0,0,1-1.3.42,9.19,9.19,0,0,1-1.59-.11h-1.42c.08,1,.12,2.42.12,4.31s0,3.59-.06,5.11c-.12,2.31-.18,4-.18,5.17a15.84,15.84,0,0,0,.12,3.17l1.87-.06c.65,0,1.42-.05,2.33-.05,1.44,0,2.16.45,2.16,1.36a1.34,1.34,0,0,1-.72,1.22,3.21,3.21,0,0,1-1.72.43Zm14.53.05a3.67,3.67,0,0,1-1.73-.74,2.11,2.11,0,0,1-.82-1.47l.62-1a4.12,4.12,0,0,1,1.08.22,6.66,6.66,0,0,0,1.3.17,2.46,2.46,0,0,0,1.85-.9,5.69,5.69,0,0,0,1.22-2.39,19,19,0,0,0,.74-4.88,15.85,15.85,0,0,0-2.38-7.89l-.63-1.08c-.72-1.25-1.32-2.36-1.81-3.35a19.67,19.67,0,0,1-1.25-3.18,14.75,14.75,0,0,1-.68-4.42A13.71,13.71,0,0,1,749.6,289a5.37,5.37,0,0,1,1.62-2.12,3.7,3.7,0,0,1,2.36-.82,3.05,3.05,0,0,1,1.89.65,1.89,1.89,0,0,1,.89,1.56.93.93,0,0,1-.4.79,1.64,1.64,0,0,1-1,.29,2.28,2.28,0,0,1-1.19-.35c-.83,0-1.49.78-2,2.22a11.6,11.6,0,0,0-.62,3.29,11.42,11.42,0,0,0,.51,3.33,14.87,14.87,0,0,0,1.3,3l1.26,2.27,2,3.74a16,16,0,0,1,1.27,3.69,18.56,18.56,0,0,1,.49,4.26,14.33,14.33,0,0,1-1.59,6.59,6.43,6.43,0,0,1-2.24,2.55,5.67,5.67,0,0,1-3.21,1Z" transform="translate(-274 -199)"/></svg>