<svg version="1.1" viewBox="0.0 0.0 652.4304461942257 184.76377952755905" fill="none" stroke="none" stroke-linecap="square" stroke-miterlimit="10" xmlns:xlink="http://www.w3.org/1999/xlink" xmlns="http://www.w3.org/2000/svg"><clipPath id="p.0"><path d="m0 0l652.4304 0l0 184.76378l-652.4304 0l0 -184.76378z" clip-rule="nonzero"/></clipPath><g clip-path="url(#p.0)"><path fill="#000000" fill-opacity="0.0" d="m0 0l652.4304 0l0 184.76378l-652.4304 0z" fill-rule="evenodd"/><path fill="#000000" fill-opacity="0.0" d="m0 0l631.9055 0l0 165.07086l-631.9055 0z" fill-rule="evenodd"/><path fill="#5b0f00" d="m34.859375 133.92688q-3.59375 0 -7.5625 -2.8125q-3.953125 -2.8125 -5.625 -6.40625q-1.53125 -3.328125 -3.140625 -21.109375q-1.59375 -17.796875 -1.59375 -26.5l0 -6.78125q-0.125 -2.953125 -0.125 -6.53125q0 -6.65625 0.765625 -13.1875q0.515625 -3.203125 1.34375 -5.5q0.828125 -2.3125 2.359375 -4.484375q2.828125 -4.34375 8.453125 -5.765625q2.953125 -0.765625 6.53125 -0.765625q2.4375 0 4.921875 1.421875q2.5 1.40625 2.5 3.3125q0 1.421875 -2.046875 1.421875q-0.765625 0 -2.9375 -0.90625q-1.921875 -0.890625 -3.46875 -0.890625q-3.578125 0 -6.46875 1.46875q-2.875 1.46875 -4.53125 3.90625q-1.40625 2.046875 -2.4375 5.640625q-1.015625 3.578125 -1.28125 7.15625q-0.375 3.203125 -0.375 7.6875l0.125 7.15625q0.125 3.078125 0.125 6.65625q0 8.84375 1.78125 26.0q1.796875 17.140625 3.46875 19.828125q1.53125 2.4375 4.53125 3.71875q3.015625 1.28125 6.34375 1.28125q5.890625 0 8.96875 -3.71875q1.140625 -1.53125 2.421875 -1.53125q1.15625 0 1.15625 1.78125q0 2.3125 -1.40625 4.046875q-1.40625 1.71875 -3.84375 2.609375q-4.09375 1.796875 -8.953125 1.796875zm38.91188 0.390625q-14.984375 0 -14.984375 -47.109375l0 -4.484375q0 -35.703125 9.21875 -35.703125q0.640625 0 1.796875 0.375q4.09375 1.40625 8.0625 1.796875q2.4375 0.515625 4.859375 4.984375q2.6875 4.609375 4.03125 12.171875q1.34375 7.546875 1.34375 15.484375l-0.25 0.640625q0 4.21875 0.125 7.546875l0.125 7.6875q0 6.53125 -0.5 11.765625q-0.78125 7.9375 -2.5625 13.703125q-1.15625 3.453125 -2.625 5.765625q-1.46875 2.296875 -3.65625 3.828125q-2.046875 1.546875 -4.984375 1.546875zm-0.515625 -3.71875q5.0 0 7.421875 -7.03125q2.4375 -7.171875 2.953125 -14.59375q0.5 -7.6875 0.5 -12.296875q0 -5.109375 -0.765625 -15.09375q-0.640625 -11.140625 -0.640625 -15.109375l-0.515625 -1.03125l0.265625 -0.640625q0 -5.625 -3.140625 -9.71875q-3.140625 -4.09375 -7.609375 -4.09375q-5.890625 0 -7.046875 5.625q-0.25 1.921875 -0.515625 5.5q0 9.484375 -0.765625 12.9375q0 1.921875 -0.375 6.015625l-0.265625 6.015625q0 2.8125 0.125 4.984375l0.140625 5.125q0 6.015625 1.015625 13.828125q0.765625 5.75 1.78125 9.71875q1.03125 3.96875 2.953125 6.78125q1.921875 3.078125 4.484375 3.078125zm44.803635 3.71875q-14.984375 0 -14.984375 -47.109375l0 -4.484375q0 -35.703125 9.21875 -35.703125q0.640625 0 1.796875 0.375q4.09375 1.40625 8.0625 1.796875q2.4375 0.515625 4.859375 4.984375q2.6875 4.609375 4.03125 12.171875q1.34375 7.546875 1.34375 15.484375l-0.25 0.640625q0 4.21875 0.125 7.546875l0.125 7.6875q0 6.53125 -0.5 11.765625q-0.78125 7.9375 -2.5625 13.703125q-1.15625 3.453125 -2.625 5.765625q-1.46875 2.296875 -3.65625 3.828125q-2.046875 1.546875 -4.984375 1.546875zm-0.515625 -3.71875q5.0 0 7.421875 -7.03125q2.4375 -7.171875 2.953125 -14.59375q0.5 -7.6875 0.5 -12.296875q0 -5.109375 -0.765625 -15.09375q-0.640625 -11.140625 -0.640625 -15.109375l-0.515625 -1.03125l0.265625 -0.640625q0 -5.625 -3.140625 -9.71875q-3.140625 -4.09375 -7.609375 -4.09375q-5.890625 0 -7.046875 5.625q-0.25 1.921875 -0.515625 5.5q0 9.484375 -0.765625 12.9375q0 1.921875 -0.375 6.015625l-0.265625 6.015625q0 2.8125 0.125 4.984375l0.140625 5.125q0 6.015625 1.015625 13.828125q0.765625 5.75 1.78125 9.71875q1.03125 3.96875 2.953125 6.78125q1.921875 3.078125 4.484375 3.078125zm59.522385 3.578125q-3.078125 0 -7.296875 -11.515625q-3.96875 -10.625 -6.921875 -23.03125q-2.9375 -12.421875 -3.1875 -17.40625l-0.390625 -0.515625l-1.921875 4.09375q-1.40625 2.6875 -2.109375 4.421875q-0.703125 1.71875 -1.34375 4.28125q-0.765625 2.4375 -0.765625 4.984375q0 2.5625 -0.25 4.609375l-0.265625 4.609375l0 16.390625q0 1.15625 0.390625 3.703125q0.375 2.3125 0.375 3.59375q0 0.640625 -0.640625 1.078125q-0.640625 0.453125 -1.40625 0.453125q-1.65625 0 -2.234375 -0.515625q-0.578125 -0.5 -0.578125 -2.171875l0 -24.0625q0 -2.046875 0.640625 -8.0625q0.640625 -6.015625 0.640625 -8.0625q0 -5.375 0.640625 -12.421875q0.515625 -7.171875 0.515625 -12.28125l0 -17.796875q0.765625 -1.40625 2.421875 -1.40625q1.03125 0 1.734375 0.703125q0.703125 0.703125 0.703125 1.734375q-1.03125 2.296875 -1.03125 6.140625l-0.25 13.4375q-0.25 6.140625 -0.25 13.5625q1.28125 -0.375 9.984375 -17.65625q8.703125 -17.15625 9.59375 -17.15625q3.328125 0 3.328125 2.171875q-8.1875 12.171875 -13.5625 23.6875l-0.125 4.09375q-0.140625 1.796875 -0.140625 4.09375q0 5.640625 4.34375 21.125q4.359375 15.484375 7.4375 21.5q1.40625 1.921875 1.65625 2.171875q1.28125 1.796875 1.859375 3.015625q0.578125 1.21875 0.578125 2.5q0 0.890625 -0.640625 1.390625q-0.640625 0.515625 -1.53125 0.515625zm15.8337555 -79.21875q-0.390625 -0.515625 -0.390625 -1.921875q0 -3.578125 3.078125 -13.5625q1.921875 -5.890625 3.453125 -6.015625l0.25 0q0.78125 0 1.28125 0.578125q0.515625 0.578125 0.640625 1.34375q0.125 1.921875 -0.125 3.515625q-0.25 1.59375 -0.703125 3.140625q-0.453125 1.53125 -0.578125 2.171875q-1.15625 3.71875 -3.703125 9.09375q-1.15625 2.171875 -2.3125 2.171875q-0.375 0 -0.890625 -0.515625zm23.717255 78.453125q-1.40625 -0.25 -2.6875 -1.09375q-1.28125 -0.828125 -1.40625 -1.96875l0.640625 -1.03125q0.515625 0 2.296875 0.390625q1.40625 0.515625 2.3125 0.515625q2.8125 0 4.984375 -2.234375q2.171875 -2.25 3.328125 -5.84375q1.796875 -6.65625 1.796875 -12.53125q0 -8.84375 -5.375 -18.953125q-3.328125 -5.890625 -5.125 -9.34375q-1.796875 -3.453125 -3.203125 -7.9375q-1.65625 -5.25 -1.65625 -10.109375q0 -4.609375 2.296875 -10.875q1.15625 -2.953125 3.265625 -4.796875q2.109375 -1.859375 4.546875 -1.859375q1.65625 0 3.25 1.15625q1.609375 1.140625 1.609375 2.421875q0 1.03125 -1.65625 1.03125q-0.515625 0 -1.28125 -0.390625q-0.765625 -0.375 -1.40625 -0.375q-1.921875 0 -3.46875 1.53125q-1.53125 1.53125 -2.296875 3.96875q-1.53125 4.734375 -1.53125 8.703125q0 2.4375 0.640625 4.984375q0.125 0.765625 0.25 1.28125q0.125 0.515625 0.125 0.765625l0.765625 2.5625l0.640625 2.3125l1.03125 2.296875q0.390625 0.90625 0.828125 1.609375q0.453125 0.703125 0.828125 1.34375l1.546875 2.6875q0.515625 0.765625 2.171875 3.640625q1.671875 2.875 3.078125 6.078125q1.28125 2.6875 1.90625 5.0625q0.640625 2.359375 1.15625 5.6875q0.390625 3.203125 0.390625 7.046875q0 6.140625 -1.671875 11.515625q-2.296875 6.40625 -6.65625 8.96875q-2.421875 1.53125 -5.625 1.53125l-0.640625 0.25zm10.234375 -83.453125q0 -0.125 -0.125 -0.125l0 0.125l0.125 0zm58.376007 83.96875q-3.59375 0 -7.5625 -2.8125q-3.953125 -2.8125 -5.625 -6.40625q-1.53125 -3.328125 -3.140625 -21.109375q-1.59375 -17.796875 -1.59375 -26.5l0 -6.78125q-0.125 -2.953125 -0.125 -6.53125q0 -6.65625 0.765625 -13.1875q0.515625 -3.203125 1.34375 -5.5q0.828125 -2.3125 2.359375 -4.484375q2.828125 -4.34375 8.453125 -5.765625q2.953125 -0.765625 6.53125 -0.765625q2.4375 0 4.921875 1.421875q2.5 1.40625 2.5 3.3125q0 1.421875 -2.046875 1.421875q-0.765625 0 -2.9375 -0.90625q-1.921875 -0.890625 -3.46875 -0.890625q-3.578125 0 -6.46875 1.46875q-2.875 1.46875 -4.53125 3.90625q-1.40625 2.046875 -2.4375 5.640625q-1.015625 3.578125 -1.28125 7.15625q-0.375 3.203125 -0.375 7.6875l0.125 7.15625q0.125 3.078125 0.125 6.65625q0 8.84375 1.78125 26.0q1.796875 17.140625 3.46875 19.828125q1.53125 2.4375 4.53125 3.71875q3.015625 1.28125 6.34375 1.28125q5.890625 0 8.96875 -3.71875q1.140625 -1.53125 2.421875 -1.53125q1.15625 0 1.15625 1.78125q0 2.3125 -1.40625 4.046875q-1.40625 1.71875 -3.84375 2.609375q-4.09375 1.796875 -8.953125 1.796875zm48.630615 -0.640625q0 -1.28125 -3.828125 -1.28125q-0.640625 -23.671875 -0.640625 -34.296875l-0.390625 -0.515625l0.515625 -1.15625q0 -2.296875 -0.515625 -4.734375l-1.921875 -0.515625q-1.15625 0.390625 -2.5625 0.390625q-1.015625 0 -4.21875 -0.640625q-2.171875 -0.640625 -3.96875 -0.640625l-1.40625 0.515625q0 4.484375 -0.125 8.0625q-0.125 3.578125 -0.125 8.0625l0.25 0.515625q0 3.578125 0.390625 10.75q0.375 7.03125 0.375 10.625q0 1.40625 -0.515625 2.375q-0.5 0.953125 -1.53125 0.953125q-2.8125 0 -2.8125 -7.6875q0 -6.53125 0.125 -11.765625l0.125 -11.65625q0 -11.640625 -0.375 -12.546875q0.640625 -1.28125 0.640625 -8.4375q0 -6.15625 -0.515625 -14.984375l-0.265625 -4.984375l-0.25 -9.984375q0 -0.90625 0.640625 -1.671875q0.640625 -0.765625 1.53125 -0.765625q2.5625 0 2.5625 7.421875q0 8.703125 -0.125 15.75q-0.25 7.03125 -0.25 15.484375q0 1.53125 9.71875 1.53125l0.515625 0q2.4375 0 3.515625 -0.953125q1.09375 -0.96875 1.09375 -3.265625q0 -6.78125 -0.890625 -17.65625q-0.78125 -11.78125 -0.78125 -17.671875q0 -0.765625 0.640625 -1.34375q0.640625 -0.578125 1.546875 -0.578125l1.140625 0.390625q0.90625 0.125 1.15625 0.375q0 9.984375 0.765625 29.828125q0.765625 19.96875 0.765625 29.953125q0 15.109375 0.90625 25.34375l-0.90625 1.40625zm-8.0625 -47.609375l0.265625 0.25l-0.265625 0l0 -0.25zm40.199768 48.640625q-14.984375 0 -14.984375 -47.109375l0 -4.484375q0 -35.703125 9.21875 -35.703125q0.640625 0 1.796875 0.375q4.09375 1.40625 8.0625 1.796875q2.4375 0.515625 4.859375 4.984375q2.6875 4.609375 4.03125 12.171875q1.34375 7.546875 1.34375 15.484375l-0.25 0.640625q0 4.21875 0.125 7.546875l0.125 7.6875q0 6.53125 -0.5 11.765625q-0.78125 7.9375 -2.5625 13.703125q-1.15625 3.453125 -2.625 5.765625q-1.46875 2.296875 -3.65625 3.828125q-2.046875 1.546875 -4.984375 1.546875zm-0.515625 -3.71875q5.0 0 7.421875 -7.03125q2.4375 -7.171875 2.953125 -14.59375q0.5 -7.6875 0.5 -12.296875q0 -5.109375 -0.765625 -15.09375q-0.640625 -11.140625 -0.640625 -15.109375l-0.515625 -1.03125l0.265625 -0.640625q0 -5.625 -3.140625 -9.71875q-3.140625 -4.09375 -7.609375 -4.09375q-5.890625 0 -7.046875 5.625q-0.25 1.921875 -0.515625 5.5q0 9.484375 -0.765625 12.9375q0 1.921875 -0.375 6.015625l-0.265625 6.015625q0 2.8125 0.125 4.984375l0.140625 5.125q0 6.015625 1.015625 13.828125q0.765625 5.75 1.78125 9.71875q1.03125 3.96875 2.953125 6.78125q1.921875 3.078125 4.484375 3.078125zm40.9599 2.171875q-2.4375 -0.765625 -4.171875 -2.171875q-1.71875 -1.40625 -3.25 -4.21875q-2.6875 -5.125 -3.203125 -14.71875q-0.25 -4.359375 -0.25 -7.6875l0 -14.59375q0 -8.3125 0.5 -16.125q0.390625 -5.765625 1.15625 -9.71875q0.765625 -3.96875 2.4375 -7.9375q1.796875 -4.109375 3.96875 -5.765625q0.890625 -0.765625 3.453125 -1.796875q1.65625 -0.640625 3.203125 -1.40625l5.109375 0l0.390625 0q0.125 0.125 0.390625 0.125l0.640625 0.140625l0.5 0.375q0.390625 0.390625 0.390625 0.515625q0.125 0.25 0.125 0.765625l-1.65625 1.921875l-5.375 0q-2.4375 0 -4.421875 2.375q-1.984375 2.359375 -3.015625 5.9375q-1.015625 3.203125 -1.65625 7.5625q-0.640625 4.34375 -0.765625 7.546875q-0.265625 4.09375 -0.265625 5.625l-0.25 0.640625q0 7.171875 -0.25 12.9375l-0.265625 12.921875q0 5.640625 0.765625 10.375q0.640625 5.109375 3.71875 9.21875q2.9375 4.09375 9.09375 4.09375q1.90625 0 3.1875 -1.15625q1.921875 0 1.921875 1.40625q0 0.890625 -1.609375 2.109375q-1.59375 1.21875 -3.25 1.859375l-4.21875 0l-3.078125 -1.15625zm40.32376 1.546875q-14.984375 0 -14.984375 -47.109375l0 -4.484375q0 -35.703125 9.21875 -35.703125q0.640625 0 1.796875 0.375q4.09375 1.40625 8.0625 1.796875q2.4375 0.515625 4.859375 4.984375q2.6875 4.609375 4.03125 12.171875q1.34375 7.546875 1.34375 15.484375l-0.25 0.640625q0 4.21875 0.125 7.546875l0.125 7.6875q0 6.53125 -0.5 11.765625q-0.78125 7.9375 -2.5625 13.703125q-1.15625 3.453125 -2.625 5.765625q-1.46875 2.296875 -3.65625 3.828125q-2.046875 1.546875 -4.984375 1.546875zm-0.515625 -3.71875q5.0 0 7.421875 -7.03125q2.4375 -7.171875 2.953125 -14.59375q0.5 -7.6875 0.5 -12.296875q0 -5.109375 -0.765625 -15.09375q-0.640625 -11.140625 -0.640625 -15.109375l-0.515625 -1.03125l0.265625 -0.640625q0 -5.625 -3.140625 -9.71875q-3.140625 -4.09375 -7.609375 -4.09375q-5.890625 0 -7.046875 5.625q-0.25 1.921875 -0.515625 5.5q0 9.484375 -0.765625 12.9375q0 1.921875 -0.375 6.015625l-0.265625 6.015625q0 2.8125 0.125 4.984375l0.140625 5.125q0 6.015625 1.015625 13.828125q0.765625 5.75 1.78125 9.71875q1.03125 3.96875 2.953125 6.78125q1.921875 3.078125 4.484375 3.078125zm33.787994 2.9375q-1.78125 0 -2.171875 -2.9375q0.25 -0.765625 0.25 -4.21875q0 -11.78125 0.390625 -34.953125q0.390625 -23.03125 0.390625 -33.28125l0.25 -4.609375l0.390625 -3.828125q0 -0.90625 0.890625 -0.90625q0.640625 0 1.796875 0.390625l0.375 0.125q0 2.8125 -0.125 5.125l0 4.984375l0 13.953125q0.125 6.140625 0.125 13.953125q-0.125 0.640625 -0.125 2.8125l-0.125 2.6875q-0.125 2.5625 -0.125 5.25q0 2.953125 0.125 5.375l0.125 5.515625l-0.390625 1.015625l0.140625 -0.125q0 0.390625 -0.140625 0.515625l0 0.515625q0 1.015625 0.390625 1.78125l-0.390625 12.296875l0 0.765625q0 2.171875 0.140625 2.5625q0 0.640625 0.640625 0.640625l6.640625 0.25q2.953125 0 4.03125 0.0625q1.09375 0.0625 1.359375 0.0625l0.375 0q0.640625 0 1.28125 0.703125q0.640625 0.703125 0.640625 1.46875q0 1.546875 -2.046875 1.671875q-2.171875 -0.125 -10.625 -0.125l0.25 0.125q-1.28125 0 -2.421875 0.125q-1.03125 0.25 -2.3125 0.25zm54.793884 -0.5q-1.921875 0 -2.4375 -0.453125q-0.515625 -0.453125 -0.765625 -2.359375q-1.15625 -9.359375 -1.40625 -11.65625l-0.640625 -5.125q-2.8125 -0.640625 -6.40625 -0.640625l-4.609375 -0.25q-3.0625 -0.390625 -4.46875 -0.390625q-0.78125 0 -0.90625 0.640625q0 0.390625 -0.125 0.390625l-0.25 2.5625q-0.140625 2.296875 -1.40625 9.21875q-0.640625 3.453125 -1.546875 5.375q-1.015625 2.171875 -1.921875 2.171875q-0.765625 0 -1.671875 -0.703125q-0.890625 -0.703125 -0.890625 -1.46875l0.140625 -0.390625l0.125 -0.375q2.296875 -9.09375 3.84375 -18.0625l1.53125 -7.921875l1.53125 -9.734375q0 0 1.40625 -8.453125q0.640625 -3.453125 2.3125 -11.125q1.78125 -8.703125 2.171875 -11.90625q0.125 -0.390625 0.515625 -4.734375q0.515625 -4.875 0.890625 -7.171875q0.390625 -3.328125 0.765625 -3.84375l0.90625 0q0.375 0.125 0.890625 0.125q1.53125 0 2.296875 -0.765625q0.90625 0 1.609375 0.578125q0.703125 0.578125 0.703125 1.34375q0 6.140625 0.890625 14.078125q0.515625 4.09375 0.765625 6.78125q1.421875 16.515625 7.171875 61.953125l0 0.390625q0 1.28125 -1.015625 1.921875zm-5.890625 -23.046875q-1.28125 -18.421875 -4.859375 -54.390625l-6.921875 34.171875q-2.9375 14.71875 -2.9375 18.5625q0 0.640625 4.859375 1.15625q4.859375 0.5 8.578125 0.5l1.28125 0zm29.1734 20.09375l-0.125 -4.734375q-0.125 -2.046875 -0.125 -4.609375q0 -1.28125 0.125 -2.171875l0.125 -2.296875q0 -1.28125 -0.5 -3.078125q0 -8.578125 -1.28125 -31.875q-1.28125 -22.53125 -1.40625 -30.59375q-7.9375 0 -10.625 -0.375q-2.5625 -0.640625 -2.5625 -2.046875q0.640625 -1.40625 2.4375 -1.40625q3.828125 0 11.125 0.5q6.65625 0.640625 11.140625 0.640625l2.6875 0l2.6875 -0.125q2.296875 0 2.296875 1.671875q0 0.765625 -0.828125 1.21875q-0.828125 0.4375 -1.984375 0.4375q-2.5625 0 -5.375 -0.25l-5.5 -0.265625q-0.515625 0 -0.515625 0.390625q-0.125 0.375 -0.125 2.421875q0 12.421875 1.53125 37.640625q1.40625 26.109375 1.40625 37.5q0 0.90625 -1.09375 1.671875q-1.078125 0.765625 -2.09375 0.765625l-1.421875 -1.03125zm32.000366 3.453125q-2.296875 0 -2.546875 -2.6875l0 -1.65625q0.125 -0.640625 0.125 -1.53125l-0.515625 -0.515625q1.03125 -2.6875 1.03125 -5.25q0 -2.9375 -0.390625 -8.453125l-0.25 -8.4375q0 -6.40625 0.375 -19.203125q0.515625 -11.390625 0.515625 -19.328125l-0.25 -7.6875q-0.265625 -3.453125 -0.265625 -7.671875q0 -1.921875 0.890625 -2.75q0.90625 -0.84375 2.828125 -0.84375q1.28125 0 2.046875 0.78125q0.25 0.125 3.703125 0.5q3.203125 0.390625 5.515625 1.15625q2.421875 0.765625 2.421875 1.921875q0 1.28125 -2.421875 2.5625q-7.296875 -2.4375 -10.375 -2.4375l-0.640625 0.765625q0.125 1.15625 0.125 5.515625q0 5.5 -0.25 9.84375q-0.125 4.484375 -0.125 9.984375q0 3.59375 1.78125 3.59375l2.0625 -0.125q1.015625 -0.140625 2.171875 -0.140625q4.984375 0 4.984375 2.3125q0 1.40625 -0.640625 2.375q-0.640625 0.953125 -1.921875 0.953125q-1.90625 0 -2.9375 -1.03125l-4.09375 -0.640625l-0.640625 0l-0.640625 0.640625l0 0.390625q0.25 2.171875 0.25 10.109375q0 4.984375 -0.125 9.09375l-0.125 9.078125q0 5.0 0.390625 10.25q0.125 2.9375 1.265625 3.90625q1.15625 0.953125 4.234375 0.953125l2.296875 -0.125q1.15625 -0.125 2.5625 -0.125q3.71875 0 3.71875 1.65625q0 2.296875 -5.640625 2.296875l-10.5 0z" fill-rule="nonzero"/></g></svg>