<svg version="1.1" viewBox="0.0 0.0 809.3280839895014 397.753280839895" fill="none" stroke="none" stroke-linecap="square" stroke-miterlimit="10" xmlns:xlink="http://www.w3.org/1999/xlink" xmlns="http://www.w3.org/2000/svg"><clipPath id="p.0"><path d="m0 0l809.32806 0l0 397.7533l-809.32806 0l0 -397.7533z" clip-rule="nonzero"/></clipPath><g clip-path="url(#p.0)"><path fill="#000000" fill-opacity="0.0" d="m0 0l809.32806 0l0 397.7533l-809.32806 0z" fill-rule="evenodd"/><path fill="#000000" fill-opacity="0.0" d="m0 0l804.22046 0l0 239.74803l-804.22046 0z" fill-rule="evenodd"/><path fill="#5b0f00" d="m38.03125 152.14375q-4.09375 0 -7.546875 -1.90625q-3.453125 -1.90625 -5.9375 -5.125q-2.203125 -3.078125 -3.96875 -7.84375q-1.75 -4.78125 -2.625 -9.90625q-1.765625 -8.65625 -2.359375 -22.734375q-0.140625 -3.375 -0.140625 -11.578125l0 -9.25q0.140625 -3.953125 0.140625 -8.203125q0 -8.65625 1.03125 -13.640625q-0.4375 -2.203125 -0.4375 -4.546875q0 -8.796875 6.59375 -14.21875q6.609375 -5.4375 16.71875 -5.4375q3.8125 0 7.03125 2.0625q3.234375 2.046875 3.234375 5.125q0 1.46875 -1.171875 2.359375q-1.171875 0.875 -2.921875 0.875q-1.46875 0 -3.15625 -0.4375q-1.6875 -0.453125 -2.125 -1.328125l-1.90625 0l0 -0.296875q-5.4375 0 -9.09375 2.34375q-2.640625 1.90625 -4.109375 6.3125q-0.59375 1.609375 -0.890625 4.109375q-0.28125 2.484375 -0.28125 4.546875q-0.15625 1.171875 -0.15625 4.6875l0.296875 5.140625l0.15625 4.984375q0 2.1875 -0.59375 5.125q-0.734375 3.671875 -0.734375 5.140625l0 3.515625q0 5.71875 0.4375 15.6875q0.15625 8.359375 1.90625 16.71875q1.328125 7.78125 4.984375 13.203125q3.53125 5.578125 9.53125 5.578125q2.5 0 6.171875 -2.640625q3.953125 -2.640625 5.5625 -2.640625q2.0625 0 4.265625 2.203125q0 5.421875 -4.109375 8.359375q-3.8125 2.625 -9.09375 3.359375q-2.9375 0.296875 -4.703125 0.296875zm46.501297 0.4375q-3.8125 0 -7.046875 -2.421875q-3.21875 -2.40625 -5.28125 -6.515625q-4.25 -8.953125 -5.28125 -19.515625q-1.3125 -9.96875 -1.3125 -19.203125q0 -1.765625 0.140625 -2.9375l0 -2.640625q0 -0.734375 -0.140625 -0.734375l0 -2.640625l0.140625 -10.265625q0.15625 -4.6875 1.171875 -14.953125q0.734375 -7.046875 3.375 -13.640625q1.03125 -2.9375 2.640625 -4.46875q1.609375 -1.546875 3.671875 -1.546875q5.859375 0 10.546875 2.125q4.703125 2.125 7.9375 5.9375q2.921875 3.671875 4.96875 9.03125q2.0625 5.34375 2.9375 11.359375q0.890625 6.15625 0.890625 13.046875l0 1.1875q0 4.546875 0.140625 8.203125l0.140625 8.359375q0 42.234375 -19.640625 42.234375zm-0.59375 -6.15625q2.640625 0 4.84375 -2.125q2.203125 -2.125 3.375 -5.796875q2.78125 -7.46875 3.375 -16.125q0.734375 -7.484375 0.734375 -12.90625q0 -6.609375 -1.03125 -17.3125q-0.875 -11.28125 -0.875 -16.859375l0 -2.640625q-0.296875 -5.578125 -3.75 -9.671875q-3.4375 -4.109375 -8.421875 -4.109375q-5.0 0 -6.609375 5.71875q-1.46875 4.546875 -1.46875 11.734375q0 2.78125 0.15625 4.6875l0 3.953125l-0.296875 6.75q-0.296875 3.078125 -0.296875 6.75q0 7.921875 0.4375 15.6875q0.59375 11.0 2.9375 21.421875q2.34375 10.84375 6.890625 10.84375zm53.390015 6.15625q-3.8125 0 -7.046875 -2.421875q-3.21875 -2.40625 -5.28125 -6.515625q-4.25 -8.953125 -5.28125 -19.515625q-1.3125 -9.96875 -1.3125 -19.203125q0 -1.765625 0.140625 -2.9375l0 -2.640625q0 -0.734375 -0.140625 -0.734375l0 -2.640625l0.140625 -10.265625q0.15625 -4.6875 1.171875 -14.953125q0.734375 -7.046875 3.375 -13.640625q1.03125 -2.9375 2.640625 -4.46875q1.609375 -1.546875 3.671875 -1.546875q5.859375 0 10.546875 2.125q4.703125 2.125 7.9375 5.9375q2.921875 3.671875 4.96875 9.03125q2.0625 5.34375 2.9375 11.359375q0.890625 6.15625 0.890625 13.046875l0 1.1875q0 4.546875 0.140625 8.203125l0.140625 8.359375q0 42.234375 -19.640625 42.234375zm-0.59375 -6.15625q2.640625 0 4.84375 -2.125q2.203125 -2.125 3.375 -5.796875q2.78125 -7.46875 3.375 -16.125q0.734375 -7.484375 0.734375 -12.90625q0 -6.609375 -1.03125 -17.3125q-0.875 -11.28125 -0.875 -16.859375l0 -2.640625q-0.296875 -5.578125 -3.75 -9.671875q-3.4375 -4.109375 -8.421875 -4.109375q-5.0 0 -6.609375 5.71875q-1.46875 4.546875 -1.46875 11.734375q0 2.78125 0.15625 4.6875l0 3.953125l-0.296875 6.75q-0.296875 3.078125 -0.296875 6.75q0 7.921875 0.4375 15.6875q0.59375 11.0 2.9375 21.421875q2.34375 10.84375 6.890625 10.84375zm70.84314 5.875q-3.375 0 -7.1875 -7.34375q-5.71875 -11.0 -11.296875 -36.21875q-1.609375 -6.890625 -2.640625 -12.765625q-5.28125 10.5625 -5.28125 25.53125l0 27.125q0 3.375 -2.9375 3.375q-2.1875 0 -3.59375 -1.25q-1.390625 -1.25 -1.390625 -3.453125l0 -44.4375q0 -6.453125 1.46875 -23.75q1.46875 -15.109375 1.46875 -23.765625q1.171875 -2.78125 4.25 -2.78125q1.90625 0 3.21875 1.328125q1.328125 1.3125 1.328125 3.21875l0 0.4375q-1.90625 3.234375 -1.90625 26.6875l0 5.28125l5.421875 -10.703125q5.0 -10.40625 9.390625 -17.890625q4.109375 -7.328125 6.015625 -7.328125q2.34375 0 4.03125 1.03125q1.6875 1.015625 1.6875 2.921875l-3.515625 5.875q-11.0 17.734375 -12.328125 20.53125q0 2.484375 -0.140625 4.390625l-0.140625 4.40625q0 6.296875 5.046875 23.53125q5.0625 17.234375 8.4375 22.8125l1.90625 2.640625q2.78125 3.8125 2.78125 6.75q0 1.609375 -1.25 2.703125q-1.234375 1.109375 -2.84375 1.109375zm23.017197 -79.9375q-1.171875 -0.296875 -1.171875 -2.640625q0 -3.078125 1.609375 -10.546875q1.625 -7.484375 4.40625 -14.234375q2.9375 -7.484375 6.015625 -7.484375q2.640625 0 2.640625 3.234375q0 6.15625 -2.140625 13.71875q-2.125 7.546875 -5.34375 12.828125q-3.375 5.125 -6.015625 5.125zm38.711792 79.484375q-2.625 -0.4375 -4.46875 -1.90625q-1.828125 -1.453125 -2.125 -3.8125l1.609375 -2.484375q0.890625 0 2.796875 0.578125q2.1875 0.4375 3.375 0.4375q2.640625 0 4.765625 -2.34375q2.125 -2.34375 3.140625 -6.15625q1.90625 -7.03125 1.90625 -12.609375q0 -9.6875 -6.15625 -20.390625l-1.609375 -2.78125q-2.78125 -4.84375 -4.6875 -8.65625q-1.90625 -3.8125 -3.234375 -8.203125q-1.75 -5.734375 -1.75 -11.453125q0 -6.453125 2.921875 -13.484375q1.46875 -3.375 4.171875 -5.5q2.71875 -2.125 6.09375 -2.125q2.640625 0 4.90625 1.6875q2.28125 1.6875 2.28125 4.03125q0 1.3125 -1.03125 2.046875q-1.015625 0.734375 -2.484375 0.734375q-1.609375 0 -3.078125 -0.875q-3.234375 0.140625 -5.140625 5.71875q-1.609375 5.125 -1.609375 8.5q0 4.265625 1.3125 8.59375q1.328125 4.3125 3.375 7.84375l3.234375 5.859375l5.125 9.671875q2.0625 4.109375 3.296875 9.546875q1.25 5.421875 1.25 11.0q0 8.9375 -4.09375 17.0q-2.0625 4.109375 -5.8125 6.609375q-3.734375 2.484375 -8.28125 2.484375l0 0.4375zm80.51535 0.296875q-4.09375 0 -7.546875 -1.90625q-3.453125 -1.90625 -5.9375 -5.125q-2.203125 -3.078125 -3.96875 -7.84375q-1.75 -4.78125 -2.625 -9.90625q-1.765625 -8.65625 -2.359375 -22.734375q-0.140625 -3.375 -0.140625 -11.578125l0 -9.25q0.140625 -3.953125 0.140625 -8.203125q0 -8.65625 1.03125 -13.640625q-0.4375 -2.203125 -0.4375 -4.546875q0 -8.796875 6.59375 -14.21875q6.609375 -5.4375 16.71875 -5.4375q3.8125 0 7.03125 2.0625q3.234375 2.046875 3.234375 5.125q0 1.46875 -1.171875 2.359375q-1.171875 0.875 -2.921875 0.875q-1.46875 0 -3.15625 -0.4375q-1.6875 -0.453125 -2.125 -1.328125l-1.90625 0l0 -0.296875q-5.4375 0 -9.09375 2.34375q-2.640625 1.90625 -4.109375 6.3125q-0.59375 1.609375 -0.890625 4.109375q-0.28125 2.484375 -0.28125 4.546875q-0.15625 1.171875 -0.15625 4.6875l0.296875 5.140625l0.15625 4.984375q0 2.1875 -0.59375 5.125q-0.734375 3.671875 -0.734375 5.140625l0 3.515625q0 5.71875 0.4375 15.6875q0.15625 8.359375 1.90625 16.71875q1.328125 7.78125 4.984375 13.203125q3.53125 5.578125 9.53125 5.578125q2.5 0 6.171875 -2.640625q3.953125 -2.640625 5.5625 -2.640625q2.0625 0 4.265625 2.203125q0 5.421875 -4.109375 8.359375q-3.8125 2.625 -9.09375 3.359375q-2.9375 0.296875 -4.703125 0.296875zm55.141937 -2.34375q-4.984375 0 -4.984375 -24.203125l0.15625 -8.359375l0.140625 -6.734375l0 -0.453125l0 -1.453125q0.15625 -1.1875 0.15625 -2.796875q0 -0.296875 -0.453125 -0.734375q-0.4375 -0.4375 -0.4375 -0.734375l0 -0.140625q-0.734375 0.296875 -2.640625 0.296875q-1.90625 0 -4.6875 -0.59375q-0.875 -0.140625 -4.6875 -0.734375l0 16.875q0 3.8125 0.4375 12.015625q0.4375 8.078125 0.4375 12.03125q0 2.203125 -1.171875 3.8125q-1.171875 1.609375 -3.078125 1.609375q-2.796875 0 -3.96875 -5.421875q-1.171875 -5.578125 -1.171875 -14.515625l0.296875 -11.890625q0.140625 -4.984375 0.140625 -10.546875l0 -2.5l0 -2.046875q0 -2.34375 -0.140625 -3.078125l0 -0.734375l0.4375 -8.515625q0 -5.5625 -0.4375 -16.5625q-0.4375 -11.0 -0.4375 -16.578125q0 -1.765625 1.171875 -3.078125q1.171875 -1.328125 2.9375 -1.328125q4.6875 0 4.6875 8.8125l-0.296875 18.171875q-0.296875 8.21875 -0.296875 18.34375q2.203125 0.734375 7.921875 0.734375l5.4375 0q0.28125 -0.890625 0.28125 -1.765625q0 -7.03125 -0.875 -20.828125q-1.03125 -12.90625 -1.03125 -20.96875q0 -1.609375 1.25 -2.703125q1.25 -1.109375 3.0 -1.109375q1.03125 0 2.9375 0.734375l1.328125 0.578125q0 20.828125 1.46875 55.59375l1.3125 37.09375q0 2.0625 -1.546875 3.234375q-1.53125 1.171875 -3.59375 1.171875zm39.902588 2.78125q-3.8125 0 -7.046875 -2.421875q-3.21875 -2.40625 -5.28125 -6.515625q-4.25 -8.953125 -5.28125 -19.515625q-1.3125 -9.96875 -1.3125 -19.203125q0 -1.765625 0.140625 -2.9375l0 -2.640625q0 -0.734375 -0.140625 -0.734375l0 -2.640625l0.140625 -10.265625q0.15625 -4.6875 1.171875 -14.953125q0.734375 -7.046875 3.375 -13.640625q1.03125 -2.9375 2.640625 -4.46875q1.609375 -1.546875 3.671875 -1.546875q5.859375 0 10.546875 2.125q4.703125 2.125 7.9375 5.9375q2.921875 3.671875 4.96875 9.03125q2.0625 5.34375 2.9375 11.359375q0.890625 6.15625 0.890625 13.046875l0 1.1875q0 4.546875 0.140625 8.203125l0.140625 8.359375q0 42.234375 -19.640625 42.234375zm-0.59375 -6.15625q2.640625 0 4.84375 -2.125q2.203125 -2.125 3.375 -5.796875q2.78125 -7.46875 3.375 -16.125q0.734375 -7.484375 0.734375 -12.90625q0 -6.609375 -1.03125 -17.3125q-0.875 -11.28125 -0.875 -16.859375l0 -2.640625q-0.296875 -5.578125 -3.75 -9.671875q-3.4375 -4.109375 -8.421875 -4.109375q-5.0 0 -6.609375 5.71875q-1.46875 4.546875 -1.46875 11.734375q0 2.78125 0.15625 4.6875l0 3.953125l-0.296875 6.75q-0.296875 3.078125 -0.296875 6.75q0 7.921875 0.4375 15.6875q0.59375 11.0 2.9375 21.421875q2.34375 10.84375 6.890625 10.84375zm55.87439 5.421875q-3.21875 0 -6.8125 -0.953125q-3.59375 -0.953125 -5.5 -2.125q-9.828125 -6.296875 -9.828125 -34.453125l0 -3.96875l0 -4.546875l0 -3.515625q0 -5.875 0.140625 -10.484375q0.15625 -4.625 0.59375 -10.046875q0.4375 -5.71875 1.3125 -9.3125q0.890625 -3.59375 2.9375 -8.140625q1.765625 -4.25 4.328125 -6.59375q2.5625 -2.359375 6.671875 -3.96875q3.671875 -1.609375 9.09375 -1.609375q2.203125 0 3.375 1.03125q1.171875 1.015625 1.171875 2.640625q0 1.453125 -0.953125 2.640625q-0.953125 1.171875 -2.28125 1.3125l-6.890625 0q-2.921875 0 -5.125 3.671875q-2.203125 3.65625 -3.078125 9.53125q-1.90625 10.84375 -1.90625 17.59375l0 0.734375l-0.296875 14.078125q-0.296875 6.3125 -0.296875 14.21875q0 5.578125 0.4375 9.09375q0.734375 5.28125 2.5 8.8125q1.75 3.953125 6.015625 5.71875q2.1875 0.875 4.828125 0.875q1.625 0 3.234375 -1.171875q1.90625 0 3.15625 0.8125q1.25 0.796875 1.25 2.40625q0 5.71875 -8.078125 5.71875zm38.43274 0.734375q-3.8125 0 -7.046875 -2.421875q-3.21875 -2.40625 -5.28125 -6.515625q-4.25 -8.953125 -5.28125 -19.515625q-1.3125 -9.96875 -1.3125 -19.203125q0 -1.765625 0.140625 -2.9375l0 -2.640625q0 -0.734375 -0.140625 -0.734375l0 -2.640625l0.140625 -10.265625q0.15625 -4.6875 1.171875 -14.953125q0.734375 -7.046875 3.375 -13.640625q1.03125 -2.9375 2.640625 -4.46875q1.609375 -1.546875 3.671875 -1.546875q5.859375 0 10.546875 2.125q4.703125 2.125 7.9375 5.9375q2.921875 3.671875 4.96875 9.03125q2.0625 5.34375 2.9375 11.359375q0.890625 6.15625 0.890625 13.046875l0 1.1875q0 4.546875 0.140625 8.203125l0.140625 8.359375q0 42.234375 -19.640625 42.234375zm-0.59375 -6.15625q2.640625 0 4.84375 -2.125q2.203125 -2.125 3.375 -5.796875q2.78125 -7.46875 3.375 -16.125q0.734375 -7.484375 0.734375 -12.90625q0 -6.609375 -1.03125 -17.3125q-0.875 -11.28125 -0.875 -16.859375l0 -2.640625q-0.296875 -5.578125 -3.75 -9.671875q-3.4375 -4.109375 -8.421875 -4.109375q-5.0 0 -6.609375 5.71875q-1.46875 4.546875 -1.46875 11.734375q0 2.78125 0.15625 4.6875l0 3.953125l-0.296875 6.75q-0.296875 3.078125 -0.296875 6.75q0 7.921875 0.4375 15.6875q0.59375 11.0 2.9375 21.421875q2.34375 10.84375 6.890625 10.84375zm58.81189 5.71875q-5.28125 -1.75 -13.046875 -1.75q-2.359375 1.453125 -4.984375 1.453125q-1.765625 0 -3.015625 -1.546875q-1.25 -1.53125 -1.25 -3.28125q0 -12.328125 1.03125 -32.859375q0.875 -21.84375 0.875 -32.703125l0 -1.03125q-0.875 -9.234375 -0.875 -13.78125q0 -13.9375 5.140625 -13.9375q1.453125 0 2.546875 1.109375q1.109375 1.09375 1.109375 2.5625q0 1.765625 -0.4375 5.578125q-0.4375 3.65625 -0.4375 5.5625q0 9.828125 0.140625 17.75q0.15625 7.78125 0.15625 17.59375q-0.734375 2.203125 -0.734375 6.171875l0 1.75l-0.296875 11.59375q-0.296875 5.125 -0.296875 11.734375q0 10.109375 4.84375 10.109375q0.296875 0 0.953125 -0.0625q0.65625 -0.078125 1.828125 -0.078125q1.328125 -0.140625 3.375 -0.140625q7.921875 0 7.921875 4.390625q0 1.46875 -1.328125 2.484375q-1.3125 1.03125 -3.21875 1.328125zm45.616394 -1.03125q-3.375 0 -5.0 -1.03125q-1.609375 -1.015625 -1.609375 -3.796875q0 -4.40625 -1.46875 -14.96875l-0.578125 -3.078125l-14.515625 -2.203125q-0.890625 3.375 -2.5 13.640625q-0.875 7.1875 -2.78125 9.53125q-1.03125 1.328125 -2.9375 1.328125q-1.765625 0 -3.234375 -1.09375q-1.453125 -1.109375 -1.453125 -2.71875l0.28125 -0.734375l0.15625 -0.59375q9.671875 -37.6875 14.65625 -74.34375q0 -0.59375 0.140625 -1.984375q0.15625 -1.390625 0.3125 -4.03125q0.4375 -5.421875 0.9375 -8.640625q0.515625 -3.234375 1.6875 -4.859375l5.0 0q2.046875 0 3.515625 0.953125q1.46875 0.953125 1.46875 2.71875q0 11.140625 3.078125 33.140625q2.9375 22.59375 2.9375 31.6875q0 0.875 0.734375 4.546875q0.71875 3.359375 0.71875 4.390625q0 1.03125 1.46875 8.796875q1.328125 7.046875 1.328125 9.09375l0 0.15625q0 3.21875 -2.34375 4.09375zm-9.6875 -28.15625q-0.4375 -2.1875 -0.4375 -5.421875q0 -13.203125 -2.34375 -33.734375l-1.46875 -15.25q-6.3125 34.46875 -8.65625 52.0625q2.203125 1.46875 12.90625 2.34375zm32.85022 24.5l-0.140625 -5.71875q-0.15625 -2.5 -0.15625 -5.578125l0.15625 -4.984375q-0.4375 -1.609375 -2.203125 -32.109375q-1.765625 -30.515625 -2.046875 -39.171875q-8.515625 -0.28125 -10.859375 -1.75q-1.609375 -1.171875 -1.609375 -2.640625q0 -1.171875 1.53125 -2.125q1.546875 -0.953125 3.15625 -0.953125q4.109375 0 9.96875 0.578125q5.578125 0.734375 9.984375 0.734375l1.171875 0l1.171875 0q4.546875 0 4.546875 3.515625q0 1.765625 -1.46875 2.875q-1.46875 1.09375 -3.375 1.09375q-1.3125 0 -3.8125 -0.4375l-2.9375 -0.59375l-0.140625 0.734375l-0.15625 0.734375q0 13.046875 2.5 41.65625q2.34375 26.828125 2.34375 41.640625q0 1.765625 -1.546875 3.09375q-1.53125 1.3125 -3.4375 1.3125l-2.640625 -1.90625zm36.075256 4.25q-1.90625 0 -3.453125 -1.328125q-1.53125 -1.3125 -1.671875 -3.21875l0 -3.8125l0 -2.9375q-0.15625 -1.3125 -0.15625 -3.078125q0 -3.078125 -0.4375 -9.390625l-0.296875 -9.375q0 -7.1875 0.453125 -21.421875q0.578125 -12.75 0.578125 -21.40625q0 -2.046875 -0.4375 -6.15625q-0.4375 -4.25 -0.4375 -6.15625q0 -10.421875 6.15625 -10.421875q4.84375 0 11.21875 1.90625q6.375 1.90625 6.375 4.546875q0 1.46875 -1.25 2.71875q-1.234375 1.25 -3.0 1.984375q-6.15625 -2.203125 -11.140625 -2.9375q0.140625 2.203125 0.140625 6.296875q0 5.875 -0.140625 10.5625q-0.4375 7.046875 -0.4375 10.5625l0.4375 2.34375l2.34375 -0.140625q1.171875 -0.15625 2.9375 -0.15625q7.03125 0 7.03125 4.109375q0 1.609375 -1.328125 2.71875q-1.3125 1.09375 -3.359375 1.09375q-2.640625 0 -4.109375 -0.28125l-3.671875 0q0.296875 3.8125 0.296875 11.140625q0 7.328125 -0.140625 13.203125q-0.4375 8.9375 -0.4375 13.34375q0 8.203125 0.28125 8.203125l4.84375 -0.140625q2.5 -0.140625 6.015625 -0.140625q5.578125 0 5.578125 3.515625q0 2.046875 -1.84375 3.140625q-1.828125 1.109375 -4.46875 1.109375l-12.46875 0zm37.541016 0.140625q-2.625 -0.4375 -4.46875 -1.90625q-1.828125 -1.453125 -2.125 -3.8125l1.609375 -2.484375q0.890625 0 2.796875 0.578125q2.1875 0.4375 3.375 0.4375q2.640625 0 4.765625 -2.34375q2.125 -2.34375 3.140625 -6.15625q1.90625 -7.03125 1.90625 -12.609375q0 -9.6875 -6.15625 -20.390625l-1.609375 -2.78125q-2.78125 -4.84375 -4.6875 -8.65625q-1.90625 -3.8125 -3.234375 -8.203125q-1.75 -5.734375 -1.75 -11.453125q0 -6.453125 2.921875 -13.484375q1.46875 -3.375 4.171875 -5.5q2.71875 -2.125 6.09375 -2.125q2.640625 0 4.90625 1.6875q2.28125 1.6875 2.28125 4.03125q0 1.3125 -1.03125 2.046875q-1.015625 0.734375 -2.484375 0.734375q-1.609375 0 -3.078125 -0.875q-3.234375 0.140625 -5.140625 5.71875q-1.609375 5.125 -1.609375 8.5q0 4.265625 1.3125 8.59375q1.328125 4.3125 3.375 7.84375l3.234375 5.859375l5.125 9.671875q2.0625 4.109375 3.296875 9.546875q1.25 5.421875 1.25 11.0q0 8.9375 -4.09375 17.0q-2.0625 4.109375 -5.8125 6.609375q-3.734375 2.484375 -8.28125 2.484375l0 0.4375z" fill-rule="nonzero"/></g></svg>